# File created by Blade
# Date/Time:  Wed Jan 21 18:02:19 2015
# Frame Rate: 120.000 fps
#------------------------------------------------------
:FULLY-SPECIFIED
:DEGREES
1284
root 21.449949 35.392779 -24.645013 -170.757561 0.867721 -178.145673
Spine -21.228778 3.059171 0.408835
Head 10.599784 -3.217779 -0.355098
LeftShoulder -13.013587 -31.358605 20.351945
LeftArm 4.521170 4.800062 -4.819993
LeftForeArm 10.823633 -0.000000 -2.283502
LeftHand -9.666303 0.000000 -4.309461
LeftHandThumb1 -26.253704 0.000000 33.147579
RightShoulder -14.027048 -4.605779 -10.263038
RightArm 5.909902 37.167551 8.786570
RightForeArm -39.560596 -0.000000 4.065357
RightHand -5.478416 -0.000000 10.626459
RightHandThumb1 -24.326973 -0.000000 -32.862282
LeftUpLeg 0.523076 8.951970 3.095034
LeftLeg -4.201156 -0.000000 0.000000
LeftFoot -21.381239 27.014109 -12.347318
LeftToeBase 24.686712 -0.000000 -0.000000
RightUpLeg -0.684857 -3.483150 0.669844
RightLeg -2.585616 -0.000000 0.000000
RightFoot -22.049212 -20.915536 16.846172
RightToeBase 24.152268 -0.000000 -0.000000
1285
root 21.443840 35.391544 -24.647979 -170.749588 0.897616 -178.139668
Spine -21.235795 3.094136 0.409644
Head 10.513050 -3.201072 -0.433385
LeftShoulder -12.952615 -31.318583 20.327372
LeftArm 4.533860 4.817394 -4.822094
LeftForeArm 10.746687 0.000000 -2.271297
LeftHand -9.648877 -0.000000 -4.290145
LeftHandThumb1 -26.253704 0.000000 33.147579
RightShoulder -13.994120 -4.643273 -10.278825
RightArm 5.946589 37.070618 8.807765
RightForeArm -39.522196 0.000000 4.098266
RightHand -5.503998 -0.000000 10.601261
RightHandThumb1 -24.326973 -0.000000 -32.862282
LeftUpLeg 0.526396 8.967941 3.085461
LeftLeg -4.203317 -0.000000 0.000000
LeftFoot -21.401654 27.033113 -12.345369
LeftToeBase 24.679839 -0.000000 -0.000000
RightUpLeg -0.693046 -3.506700 0.662494
RightLeg -2.581041 -0.000000 0.000000
RightFoot -22.033618 -20.866012 16.839339
RightToeBase 24.128421 -0.000000 -0.000000
1286
root 21.437964 35.390681 -24.651202 -170.740840 0.936831 -178.131294
Spine -21.242558 3.138082 0.405387
Head 10.431016 -3.169789 -0.493431
LeftShoulder -12.911971 -31.288549 20.323054
LeftArm 4.578782 4.822754 -4.840137
LeftForeArm 10.653556 -0.000000 -2.280381
LeftHand -9.635670 0.000000 -4.297524
LeftHandThumb1 -26.253704 0.000000 33.147579
RightShoulder -13.967461 -4.676354 -10.280341
RightArm 6.000120 37.004832 8.824289
RightForeArm -39.580585 -0.000000 4.076319
RightHand -5.350038 0.000000 10.497861
RightHandThumb1 -24.326973 -0.000000 -32.862282
LeftUpLeg 0.536837 8.965365 3.078355
LeftLeg -4.214256 -0.000000 0.000000
LeftFoot -21.421323 27.075564 -12.334923
LeftToeBase 24.669274 -0.000000 -0.000000
RightUpLeg -0.702349 -3.501089 0.655701
RightLeg -2.576042 -0.000000 0.000000
RightFoot -22.029823 -20.843361 16.858783
RightToeBase 24.145083 -0.000000 -0.000000
1287
root 21.431673 35.390157 -24.654595 -170.737886 0.983402 -178.130659
Spine -21.243230 3.178860 0.392020
Head 10.358876 -3.142726 -0.535971
LeftShoulder -12.877722 -31.253240 20.314562
LeftArm 4.635489 4.863744 -4.839928
LeftForeArm 10.537916 -0.000000 -2.301254
LeftHand -9.694942 -0.000000 -4.272085
LeftHandThumb1 -26.253704 0.000000 33.147579
RightShoulder -13.932675 -4.705080 -10.285399
RightArm 6.050033 36.938006 8.855443
RightForeArm -39.496479 0.000000 4.170444
RightHand -5.534844 -0.000000 10.590661
RightHandThumb1 -24.326973 -0.000000 -32.862282
LeftUpLeg 0.556607 8.965603 3.063486
LeftLeg -4.230673 -0.000000 0.000000
LeftFoot -21.428746 27.112693 -12.347391
LeftToeBase 24.659040 -0.000000 -0.000000
RightUpLeg -0.714616 -3.520389 0.640064
RightLeg -2.557269 -0.000000 0.000000
RightFoot -22.039152 -20.773427 16.865523
RightToeBase 24.196130 -0.000000 -0.000000
1288
root 21.426066 35.389221 -24.658917 -170.742718 1.031681 -178.130121
Spine -21.236833 3.231600 0.375764
Head 10.304115 -3.141304 -0.586689
LeftShoulder -12.838387 -31.212990 20.301609
LeftArm 4.683969 4.849548 -4.836759
LeftForeArm 10.462825 -0.000000 -2.295885
LeftHand -9.701743 -0.000000 -4.323065
LeftHandThumb1 -26.253704 0.000000 33.147579
RightShoulder -13.913432 -4.725762 -10.288854
RightArm 6.123605 36.865665 8.877870
RightForeArm -39.489054 -0.000000 4.150893
RightHand -5.491873 -0.000000 10.612521
RightHandThumb1 -24.326973 -0.000000 -32.862282
LeftUpLeg 0.589579 8.950837 3.051209
LeftLeg -4.253663 -0.000000 0.000000
LeftFoot -21.438947 27.185060 -12.345166
LeftToeBase 24.692302 -0.000000 -0.000000
RightUpLeg -0.710703 -3.524888 0.624274
RightLeg -2.553726 -0.000000 0.000000
RightFoot -22.028310 -20.736463 16.852613
RightToeBase 24.173617 -0.000000 -0.000000
1289
root 21.421571 35.389456 -24.662101 -170.741992 1.085609 -178.123156
Spine -21.225957 3.279198 0.364946
Head 10.211902 -3.102232 -0.589144
LeftShoulder -12.820697 -31.190583 20.297511
LeftArm 4.742106 4.842483 -4.825925
LeftForeArm 10.361442 -0.000000 -2.328344
LeftHand -9.734664 -0.000000 -4.298040
LeftHandThumb1 -26.253704 0.000000 33.147579
RightShoulder -13.888394 -4.727521 -10.280352
RightArm 6.189817 36.841287 8.896920
RightForeArm -39.500774 -0.000000 4.155329
RightHand -5.481074 -0.000000 10.546534
RightHandThumb1 -24.326973 -0.000000 -32.862282
LeftUpLeg 0.618983 8.957337 3.043862
LeftLeg -4.283781 -0.000000 0.000000
LeftFoot -21.440065 27.236272 -12.349606
LeftToeBase 24.666742 -0.000000 -0.000000
RightUpLeg -0.713636 -3.517657 0.616916
RightLeg -2.557282 -0.000000 0.000000
RightFoot -22.032349 -20.662715 16.883078
RightToeBase 24.254304 -0.000000 -0.000000
1290
root 21.415830 35.389212 -24.665705 -170.741669 1.131261 -178.123864
Spine -21.226261 3.318715 0.350850
Head 10.168436 -3.054959 -0.616494
LeftShoulder -12.785965 -31.174305 20.299280
LeftArm 4.759243 4.776898 -4.836480
LeftForeArm 10.371790 -0.000000 -2.306507
LeftHand -9.738412 -0.000000 -4.331101
LeftHandThumb1 -26.253704 0.000000 33.147579
RightShoulder -13.853653 -4.736715 -10.284331
RightArm 6.244496 36.851279 8.926748
RightForeArm -39.497335 -0.000000 4.197270
RightHand -5.462098 -0.000000 10.551258
RightHandThumb1 -24.326973 -0.000000 -32.862282
LeftUpLeg 0.647968 8.945860 3.028872
LeftLeg -4.308768 -0.000000 0.000000
LeftFoot -21.432841 27.285646 -12.348522
LeftToeBase 24.620987 -0.000000 -0.000000
RightUpLeg -0.716471 -3.537339 0.598538
RightLeg -2.549889 -0.000000 0.000000
RightFoot -22.000456 -20.610649 16.875923
RightToeBase 24.187963 -0.000000 -0.000000
1291
root 21.411014 35.388690 -24.669708 -170.741036 1.176291 -178.126770
Spine -21.228981 3.356926 0.330350
Head 10.149394 -2.964716 -0.666125
LeftShoulder -12.732686 -31.199783 20.301580
LeftArm 4.765180 4.747551 -4.834555
LeftForeArm 10.381170 -0.000000 -2.313245
LeftHand -9.750257 -0.000000 -4.326994
LeftHandThumb1 -26.253704 0.000000 33.147579
RightShoulder -13.811794 -4.750174 -10.305815
RightArm 6.276584 36.854674 8.973027
RightForeArm -39.481244 0.000000 4.246868
RightHand -5.550857 -0.000000 10.545010
RightHandThumb1 -24.326973 -0.000000 -32.862282
LeftUpLeg 0.670185 8.955153 3.012462
LeftLeg -4.324540 -0.000000 0.000000
LeftFoot -21.442345 27.321410 -12.353573
LeftToeBase 24.630576 -0.000000 -0.000000
RightUpLeg -0.712573 -3.536000 0.582286
RightLeg -2.558410 -0.000000 0.000000
RightFoot -21.989970 -20.590281 16.857542
RightToeBase 24.221180 -0.000000 -0.000000
1292
root 21.406125 35.388370 -24.673552 -170.741141 1.223815 -178.126711
Spine -21.227294 3.398594 0.314924
Head 10.088656 -2.898870 -0.667003
LeftShoulder -12.700348 -31.202550 20.302238
LeftArm 4.793321 4.717834 -4.834399
LeftForeArm 10.376774 -0.000000 -2.317321
LeftHand -9.805978 -0.000000 -4.320264
LeftHandThumb1 -26.253704 0.000000 33.147579
RightShoulder -13.780527 -4.748859 -10.321294
RightArm 6.335700 36.837861 9.013896
RightForeArm -39.451693 -0.000000 4.272161
RightHand -5.583451 -0.000000 10.541546
RightHandThumb1 -24.326973 -0.000000 -32.862282
LeftUpLeg 0.700374 8.953579 2.997537
LeftLeg -4.349165 -0.000000 0.000000
LeftFoot -21.440918 27.344058 -12.353533
LeftToeBase 24.574454 -0.000000 -0.000000
RightUpLeg -0.704757 -3.534280 0.567616
RightLeg -2.572971 -0.000000 0.000000
RightFoot -21.968857 -20.547473 16.865437
RightToeBase 24.186295 -0.000000 -0.000000
